<svg width="12" height="12" viewBox="0 0 12 12" fill="none" xmlns="http://www.w3.org/2000/svg">
<path fill-rule="evenodd" clip-rule="evenodd" d="M0.768485 0.768485C1.12647 0.410505 1.70687 0.410505 2.06485 0.768485L6 4.70364L9.93515 0.768485C10.2931 0.410505 10.8735 0.410505 11.2315 0.768485C11.5895 1.12647 11.5895 1.70687 11.2315 2.06485L7.29636 6L11.2315 9.93515C11.5895 10.2931 11.5895 10.8735 11.2315 11.2315C10.8735 11.5895 10.2931 11.5895 9.93515 11.2315L6 7.29636L2.06485 11.2315C1.70687 11.5895 1.12647 11.5895 0.768485 11.2315C0.410505 10.8735 0.410505 10.2931 0.768485 9.93515L4.70364 6L0.768485 2.06485C0.410505 1.70687 0.410505 1.12647 0.768485 0.768485Z" fill="#C3C6CE"/>
</svg>
